<svg width="24" height="24" viewBox="0 0 24 24" fill="none" xmlns="http://www.w3.org/2000/svg">
<path fill-rule="evenodd" clip-rule="evenodd" d="M2 7C2 4.23858 4.23858 2 7 2H17C19.7614 2 22 4.23858 22 7V17C22 19.7614 19.7614 22 17 22H7C4.23858 22 2 19.7614 2 17V7ZM7 4C5.34315 4 4 5.34315 4 7V17C4 18.6569 5.34315 20 7 20H17C18.6569 20 20 18.6569 20 17V7C20 5.34315 18.6569 4 17 4H7ZM9.17153 9.17156C9.56205 8.78104 10.1952 8.78104 10.5857 9.17156L12 10.5858L13.4142 9.17157C13.8047 8.78105 14.4379 8.78105 14.8284 9.17157C15.219 9.5621 15.219 10.1953 14.8284 10.5858L13.4142 12L14.8284 13.4142C15.2189 13.8047 15.2189 14.4379 14.8284 14.8284C14.4379 15.2189 13.8047 15.2189 13.4142 14.8284L12 13.4142L10.5858 14.8284C10.1953 15.219 9.5621 15.219 9.17157 14.8284C8.78105 14.4379 8.78105 13.8047 9.17157 13.4142L10.5858 12L9.17153 10.5858C8.78101 10.1952 8.78101 9.56208 9.17153 9.17156Z" fill="white"/>
</svg>
