<svg width="24" height="24" viewBox="0 0 24 24" fill="none" xmlns="http://www.w3.org/2000/svg">
<path fill-rule="evenodd" clip-rule="evenodd" d="M6.08376 6.08376C6.51413 3.75992 8.55154 2 11 2H17C19.7614 2 22 4.23858 22 7V13C22 15.4485 20.2401 17.4859 17.9162 17.9162C17.4859 20.2401 15.4485 22 13 22H7C4.23858 22 2 19.7614 2 17V11C2 8.55154 3.75992 6.51413 6.08376 6.08376ZM8.17071 6H13C15.7614 6 18 8.23858 18 11V15.8293C19.1652 15.4175 20 14.3062 20 13V7C20 5.34315 18.6569 4 17 4H11C9.69378 4 8.58254 4.83481 8.17071 6ZM7 8C5.34315 8 4 9.34315 4 11V17C4 18.6569 5.34315 20 7 20H13C14.6569 20 16 18.6569 16 17V11C16 9.34315 14.6569 8 13 8H7ZM13.9571 11.0429C14.3476 11.4334 14.3476 12.0666 13.9571 12.4571L9.95711 16.4571C9.56658 16.8476 8.93342 16.8476 8.54289 16.4571L6.54289 14.4571C6.15237 14.0666 6.15237 13.4334 6.54289 13.0429C6.93342 12.6524 7.56658 12.6524 7.95711 13.0429L9.25 14.3358L12.5429 11.0429C12.9334 10.6524 13.5666 10.6524 13.9571 11.0429Z" fill="white"/>
</svg>
